<?xml version="1.0" standalone="no"?>
<!DOCTYPE svg PUBLIC "-//W3C//DTD SVG 20010904//EN"
 "http://www.w3.org/TR/2001/REC-SVG-20010904/DTD/svg10.dtd">
<svg version="1.0" xmlns="http://www.w3.org/2000/svg"
 width="1007.000000pt" height="1024.000000pt" viewBox="0 0 1007.000000 1024.000000"
 preserveAspectRatio="xMidYMid meet">

<g transform="translate(0.000000,1024.000000) scale(0.100000,-0.100000)"
fill="#000000" stroke="none">
<path d="M4726 8739 c-328 -23 -581 -70 -863 -160 -249 -80 -550 -212 -758
-334 -116 -67 -357 -230 -430 -289 -464 -379 -792 -781 -1044 -1283 -33 -67
-61 -124 -61 -127 0 -3 -13 -34 -29 -68 -49 -108 -127 -327 -165 -463 -157
-568 -183 -1113 -80 -1675 132 -722 471 -1387 975 -1914 693 -724 1606 -1131
2609 -1163 613 -19 1251 124 1795 402 471 240 882 572 1216 980 378 461 645
1028 768 1632 51 248 65 410 65 733 0 316 -6 392 -55 670 -129 741 -518 1469
-1073 2007 -430 417 -917 708 -1501 896 -405 130 -918 189 -1369 156z m214
-2414 c36 -19 81 -69 105 -117 19 -40 23 -42 135 -78 183 -60 494 -206 539
-254 32 -34 37 -72 33 -219 l-4 -128 -27 3 -26 3 -5 135 c-4 118 -7 135 -23
138 -9 2 -110 -8 -225 -22 -260 -32 -332 -39 -782 -76 -201 -16 -381 -32 -400
-35 -19 -3 -104 -10 -188 -15 -198 -14 -228 -1 -159 70 96 98 308 218 514 290
l52 18 6 -41 c9 -48 48 -90 110 -118 22 -10 41 -16 43 -15 1 2 -13 19 -32 38
-61 61 -66 153 -10 197 13 10 63 33 111 50 102 37 136 60 153 101 10 24 10 37
1 56 -6 14 -11 30 -11 35 0 13 53 3 90 -16z m652 -621 c2 -9 1 -43 0 -75 l-4
-59 -68 6 -68 7 -178 -126 c-99 -69 -219 -150 -269 -181 -49 -31 -115 -73
-145 -93 -30 -21 -67 -44 -82 -52 -16 -7 -28 -16 -28 -20 0 -3 -8 -16 -18 -28
-14 -19 -37 -26 -157 -43 -344 -49 -659 -66 -684 -36 -8 9 -11 56 -9 140 l3
127 125 4 c194 6 684 33 793 45 222 23 261 33 322 84 l30 25 -150 -5 c-82 -4
-231 -15 -330 -25 -378 -41 -465 -48 -625 -51 l-165 -3 0 120 0 120 50 3 c28
1 140 9 250 17 110 8 306 19 435 25 129 6 258 15 285 20 28 6 133 19 235 30
416 46 447 47 452 24z m128 -247 c182 -53 293 -99 338 -140 22 -20 22 -21 22
-339 0 -303 -1 -319 -20 -338 -23 -23 -12 -21 -285 -65 -121 -19 -269 -44
-330 -55 -375 -68 -627 -110 -636 -105 -5 4 -9 19 -9 35 0 23 5 31 23 35 32 7
664 114 773 130 337 51 396 63 406 78 4 6 8 135 8 284 l0 273 -24 6 c-43 11
-332 -27 -726 -96 -157 -27 -310 -52 -340 -55 l-55 -7 25 21 c14 11 88 63 165
115 77 53 196 136 265 185 154 111 147 111 400 38z m214 -303 c3 -9 6 -46 6
-84 0 -57 -3 -70 -17 -74 -41 -12 -267 -46 -373 -57 -112 -11 -245 -33 -385
-64 -61 -13 -330 -55 -355 -55 -6 0 -10 41 -10 95 0 90 1 95 23 100 34 8 335
53 402 60 77 8 210 31 300 50 99 22 258 43 336 44 52 1 68 -2 73 -15z m-1204
-298 l0 -114 -27 -6 c-97 -19 -167 -27 -313 -36 -91 -5 -196 -15 -235 -20
-106 -17 -247 1 -267 33 -4 7 -8 58 -8 114 l0 101 78 -5 c88 -6 378 11 527 31
55 7 133 14 173 15 l72 1 0 -114z m1208 -12 c2 -57 -1 -84 -10 -92 -16 -13
-319 -68 -453 -82 -55 -6 -129 -17 -165 -25 -116 -27 -416 -83 -461 -87 l-44
-3 -3 89 c-2 49 1 93 5 97 8 7 262 52 363 64 139 16 279 38 325 51 69 19 384
73 415 71 24 -2 25 -5 28 -83z m-40 -701 c4 -26 -25 -86 -38 -78 -5 3 -7 12
-4 20 3 7 0 23 -6 35 -9 16 -8 25 1 36 17 21 43 13 47 -13z m252 -14 c26 -9
34 -9 41 2 11 18 23 4 39 -43 17 -57 3 -65 -39 -24 -47 46 -114 65 -156 45
-41 -19 -43 -44 -6 -63 16 -9 38 -16 49 -16 37 0 122 -31 152 -56 48 -41 39
-108 -20 -139 -37 -19 -159 -20 -203 -1 -42 18 -71 51 -63 72 6 15 11 13 39
-13 44 -42 69 -53 120 -53 77 0 112 51 53 78 -13 6 -45 14 -72 18 -101 14
-144 46 -144 104 0 20 6 44 13 53 32 43 126 60 197 36z m-2482 -13 c-14 -10
-18 -28 -18 -73 l0 -60 48 2 47 2 3 61 c2 51 0 62 -13 62 -8 0 -15 5 -15 10 0
6 37 10 90 10 50 0 90 -2 90 -5 0 -3 -12 -10 -26 -15 l-25 -10 3 -127 c3 -124
4 -128 26 -131 12 -2 22 -8 22 -13 0 -5 -40 -9 -90 -9 -53 0 -90 4 -90 10 0 6
7 10 15 10 13 0 15 11 13 63 l-3 62 -47 2 -48 2 0 -65 c0 -50 3 -64 15 -64 8
0 15 -4 15 -10 0 -6 -37 -10 -90 -10 -53 0 -90 4 -90 10 0 6 9 10 20 10 19 0
20 7 20 135 0 128 -1 135 -20 135 -11 0 -20 5 -20 10 0 6 37 10 93 10 79 -1
89 -3 75 -14z m497 -23 c48 -115 120 -253 132 -253 7 0 13 -4 13 -10 0 -6 -33
-10 -80 -10 -71 0 -102 10 -67 23 9 3 7 14 -8 43 -20 38 -21 39 -81 42 -57 3
-61 1 -72 -23 -15 -32 -16 -65 -2 -65 6 0 10 -4 10 -10 0 -5 -20 -10 -45 -10
-45 0 -60 14 -27 24 11 4 38 51 73 128 57 129 61 143 42 143 -6 0 -15 3 -19 8
-4 4 20 7 54 7 l62 0 15 -37z m347 -63 c102 -141 98 -140 98 -38 0 94 -5 118
-25 118 -8 0 -17 5 -20 10 -4 6 16 10 52 9 56 0 57 -1 36 -16 -22 -14 -23 -23
-23 -128 0 -122 4 -145 26 -145 8 0 14 -4 14 -10 0 -6 -26 -10 -59 -10 -56 0
-61 2 -82 33 -40 58 -114 147 -121 147 -5 0 -8 -34 -8 -76 0 -67 2 -76 20 -81
39 -10 19 -23 -35 -23 -58 0 -70 9 -32 25 20 9 22 18 25 101 2 83 1 93 -23
128 -14 20 -25 41 -25 47 0 6 23 9 57 7 l57 -3 68 -95z m413 79 c16 -50 126
-269 135 -269 5 0 10 -4 10 -10 0 -13 -147 -13 -155 -1 -3 5 1 11 9 13 13 3
12 9 -4 46 l-19 42 -60 0 c-56 0 -60 -2 -75 -31 -15 -30 -12 -59 5 -59 5 0 9
-4 9 -10 0 -5 -20 -10 -45 -10 -44 0 -60 12 -30 24 14 5 109 195 121 242 5 18
2 24 -10 24 -9 0 -16 5 -16 10 0 6 26 10 59 10 52 0 61 -3 66 -21z m337 -56
c30 -43 63 -90 73 -105 9 -16 21 -28 26 -28 5 0 9 40 9 89 0 81 -2 90 -22 104
-22 15 -21 16 30 16 28 1 52 -3 52 -9 0 -5 -6 -10 -14 -10 -22 0 -26 -23 -26
-141 0 -98 2 -110 20 -121 33 -21 23 -28 -34 -28 l-55 0 -68 90 c-37 49 -71
90 -75 90 -5 0 -8 -34 -8 -75 0 -58 4 -77 15 -81 31 -12 13 -24 -35 -24 -50 0
-67 13 -30 23 18 5 20 14 20 110 0 89 -3 108 -20 130 -31 39 -25 47 33 47 l54
0 55 -77z m523 40 c23 -54 29 -83 17 -83 -6 0 -13 8 -16 18 -12 38 -56 75 -97
82 -69 13 -79 6 -79 -56 0 -29 4 -55 9 -58 15 -10 38 4 50 30 16 36 31 20 31
-34 0 -61 -15 -87 -29 -51 -9 25 -43 44 -55 31 -3 -3 -6 -34 -6 -69 l0 -63 54
0 c50 0 56 3 89 39 19 21 37 44 39 52 3 8 9 11 13 7 4 -4 -1 -31 -12 -60 l-20
-53 -152 -3 c-98 -2 -151 1 -151 8 0 5 7 10 15 10 13 0 15 21 15 131 0 114 -2
134 -17 145 -15 11 6 13 134 14 l153 0 15 -37z m-1609 -578 c61 -19 64 -18 64
1 0 38 30 -9 46 -71 8 -33 -18 -34 -39 -1 -20 30 -97 61 -131 52 -14 -3 -32
-19 -40 -34 -30 -59 -24 -175 11 -214 16 -18 57 -23 87 -12 22 9 21 73 -1 90
-16 12 -9 13 50 14 l67 0 0 -70 c0 -73 -8 -84 -40 -55 -15 14 -21 14 -53 0
-118 -49 -247 26 -247 144 0 96 53 149 171 170 3 1 28 -6 55 -14z m-581 -9
c29 -12 34 -12 39 0 9 25 22 15 34 -25 7 -21 12 -43 12 -50 0 -18 -24 -13 -37
9 -31 48 -154 73 -189 38 -17 -16 -17 -18 1 -37 10 -12 34 -23 54 -27 138 -23
191 -57 191 -123 0 -59 -41 -85 -140 -89 -64 -3 -82 0 -119 20 -51 27 -71 52
-55 68 8 8 21 1 46 -24 41 -41 105 -55 162 -36 51 17 48 45 -6 70 -24 11 -54
20 -68 21 -37 1 -85 21 -114 46 -29 25 -35 77 -13 106 34 45 134 61 202 33z
m308 -6 c-22 -9 -23 -14 -23 -145 0 -130 1 -135 21 -135 11 0 17 -4 14 -10 -3
-5 -44 -10 -91 -10 -49 0 -84 4 -84 10 0 6 7 10 15 10 13 0 15 22 15 135 0
111 -3 135 -14 135 -8 0 -18 5 -21 10 -4 6 29 10 92 9 69 0 91 -3 76 -9z m544
-12 c11 -13 46 -60 77 -105 32 -46 62 -83 67 -83 5 0 9 41 9 90 0 87 -1 91
-25 100 -38 15 -30 20 30 20 54 0 74 -13 35 -23 -19 -5 -20 -14 -20 -126 0
-110 2 -122 20 -133 33 -21 23 -28 -35 -28 l-55 0 -52 66 c-29 36 -65 80 -80
98 l-27 31 -1 -77 c0 -68 3 -79 20 -88 31 -16 14 -30 -35 -30 -51 0 -65 12
-30 28 24 11 25 15 25 105 0 84 -3 97 -25 127 -14 19 -25 38 -25 42 0 4 24 8
53 8 43 0 58 -5 74 -22z m527 -123 c38 -80 73 -145 77 -145 5 0 9 -4 9 -10 0
-6 -31 -10 -74 -10 -41 0 -78 5 -81 10 -3 6 1 10 9 10 20 0 19 6 -2 50 -16 34
-19 35 -78 38 -60 3 -61 2 -74 -29 -10 -24 -11 -36 -2 -50 17 -27 16 -29 -26
-29 -48 0 -59 10 -33 30 11 8 45 69 75 135 52 113 54 120 36 127 -34 13 -22
18 38 18 l58 0 68 -145z m411 95 c19 -56 16 -89 -5 -50 -21 42 -63 80 -87 80
-23 0 -23 -1 -23 -131 0 -122 1 -131 20 -136 11 -3 20 -9 20 -14 0 -12 -177
-12 -185 0 -3 5 5 11 17 13 22 3 23 6 26 136 l3 133 -28 -3 c-20 -2 -38 -17
-63 -51 -40 -54 -50 -42 -21 26 l20 47 145 0 144 0 17 -50z m193 33 c-32 -37
-16 -219 22 -257 28 -29 65 -9 79 41 14 49 14 213 1 213 -5 0 -10 5 -10 10 0
6 32 10 77 10 72 0 75 -1 61 -17 -11 -13 -16 -41 -16 -100 -1 -90 -14 -128
-58 -162 -81 -64 -216 -35 -259 55 -10 21 -15 61 -15 118 0 51 -4 86 -10 86
-5 0 -10 5 -10 10 0 6 32 10 77 10 72 0 75 -1 61 -17z m577 -8 c37 -36 35 -97
-4 -135 l-29 -29 29 -46 c16 -25 36 -48 44 -51 32 -13 12 -24 -42 -24 -69 0
-73 2 -118 65 l-35 50 0 -42 c0 -23 5 -45 10 -48 27 -16 3 -25 -69 -25 -76 0
-113 12 -71 23 19 5 20 14 20 135 0 124 -1 129 -22 140 -18 8 10 11 120 11
139 1 144 0 167 -24z m412 -32 c22 -56 22 -87 -1 -49 -6 11 -25 36 -43 55 -28
32 -36 36 -77 34 -25 -1 -50 -4 -56 -8 -5 -3 -9 -27 -7 -53 2 -40 6 -47 25
-50 17 -3 26 4 35 27 7 17 16 28 20 24 9 -9 9 -133 0 -133 -5 0 -16 14 -25 30
-18 31 -42 40 -50 18 -3 -7 -4 -38 -4 -68 l1 -55 47 -3 c60 -4 81 8 114 63 35
61 47 48 20 -23 l-22 -57 -152 -3 c-87 -1 -152 1 -152 7 0 5 9 11 20 14 19 5
20 14 20 135 0 124 -1 129 -22 140 -18 8 13 11 132 11 l155 1 22 -57z m-2413
-884 c33 -15 43 -61 22 -94 -13 -19 -26 -25 -68 -27 l-53 -3 -3 -42 c-2 -29
-8 -43 -18 -43 -11 0 -14 21 -14 110 l0 110 55 0 c30 0 65 -5 79 -11z m153 -1
c9 -11 69 -164 76 -192 1 -5 -3 -10 -9 -12 -5 -3 -17 11 -27 30 -15 33 -18 34
-59 30 -24 -3 -47 -12 -53 -20 -49 -76 -56 -52 -15 49 50 124 65 143 87 115z
m248 3 c3 -6 -12 -11 -32 -13 l-38 -3 -3 -97 c-2 -78 -6 -98 -17 -98 -12 0
-15 19 -15 100 l0 100 -36 0 c-21 0 -33 4 -29 10 8 13 162 13 170 1z m65 -102
c0 -84 -3 -110 -12 -107 -9 3 -14 34 -16 98 -3 97 0 120 18 120 6 0 10 -41 10
-111z m201 92 c31 -25 17 -39 -16 -17 -15 10 -40 16 -58 14 -27 -2 -32 -7 -32
-28 0 -22 8 -27 58 -43 61 -20 83 -43 73 -81 -11 -46 -118 -64 -156 -26 -29
29 -15 45 17 20 42 -33 113 -21 113 19 0 18 -17 28 -92 51 -50 15 -64 56 -31
92 22 25 93 24 124 -1z m196 13 c21 -6 39 -32 28 -42 -3 -3 -13 2 -23 11 -20
18 -68 22 -90 8 -29 -18 -8 -46 48 -64 80 -25 102 -65 59 -108 -18 -18 -30
-21 -77 -17 -38 3 -59 11 -68 23 -21 28 -6 38 23 15 29 -23 71 -26 97 -7 32
23 16 50 -40 67 -62 18 -84 35 -84 66 0 42 61 65 127 48z m248 -4 c3 -5 -22
-10 -62 -12 l-68 -3 0 -35 c0 -35 0 -35 42 -32 24 2 52 1 63 -3 37 -12 10 -25
-51 -25 l-60 0 3 -37 c3 -38 3 -38 48 -39 80 -2 90 -4 90 -14 0 -7 -30 -10
-82 -8 l-83 3 -3 94 c-1 52 -1 100 2 108 6 15 151 19 161 3z m188 -1 c45 -24
50 -64 13 -99 l-25 -23 25 -36 c26 -39 30 -51 14 -51 -6 0 -25 20 -42 45 -27
38 -37 45 -65 45 -33 0 -33 -1 -33 -46 0 -32 -4 -44 -12 -42 -13 5 -24 178
-13 206 6 16 108 16 138 1z m117 -100 c0 -84 -3 -110 -12 -107 -9 3 -14 33
-16 89 -3 90 2 129 18 129 6 0 10 -45 10 -111z m220 101 c0 -5 -28 -10 -62
-12 -63 -3 -63 -3 -66 -35 l-3 -32 57 -3 c35 -2 59 -8 62 -15 3 -10 -13 -13
-58 -13 l-61 0 3 -37 3 -38 68 -3 c97 -4 83 -22 -18 -22 l-85 0 0 103 c0 57 3
107 7 110 10 11 153 8 153 -3z"/>
<path d="M5970 4009 c13 -24 57 -44 115 -54 56 -9 98 -25 113 -43 11 -14 12
-14 12 0 0 27 -35 47 -118 66 -46 11 -91 27 -101 36 -24 22 -34 20 -21 -5z"/>
<path d="M3564 4097 c-2 -7 -3 -67 -2 -132 2 -84 7 -120 16 -123 9 -3 12 28
12 132 0 87 -4 136 -10 136 -6 0 -13 -6 -16 -13z"/>
<path d="M3772 3980 c4 -175 22 -177 26 -2 2 114 0 132 -13 132 -13 0 -15 -18
-13 -130z"/>
<path d="M4090 4092 c0 -12 100 -235 111 -246 22 -24 16 7 -15 75 -18 41 -44
98 -57 127 -21 46 -39 67 -39 44z"/>
<path d="M4050 4004 c-11 -25 -20 -48 -20 -50 0 -2 20 -4 45 -4 25 0 45 5 45
10 0 14 -39 90 -46 90 -2 0 -14 -21 -24 -46z"/>
<path d="M4370 4105 c0 -11 202 -265 211 -265 14 0 6 12 -96 149 -49 66 -96
120 -102 121 -7 0 -13 -2 -13 -5z"/>
<path d="M4860 4085 c0 -23 107 -245 119 -245 5 0 -1 24 -13 53 -90 200 -106
230 -106 192z"/>
<path d="M4816 4004 c-10 -25 -16 -47 -13 -50 3 -3 23 -4 45 -2 l41 3 -21 48
c-11 26 -23 47 -27 47 -3 0 -14 -21 -25 -46z"/>
<path d="M5140 4104 c0 -5 113 -156 187 -252 24 -30 25 -3 2 30 -111 158 -189
249 -189 222z"/>
<path d="M5530 3975 c0 -83 4 -135 10 -135 6 0 10 52 10 135 0 83 -4 135 -10
135 -6 0 -10 -52 -10 -135z"/>
<path d="M4028 3483 c-9 -2 -27 -20 -39 -39 -29 -48 -24 -142 11 -179 36 -38
42 -30 15 21 -14 26 -25 60 -25 76 0 30 22 81 48 111 8 9 13 16 11 16 -2 -1
-12 -3 -21 -6z"/>
<path d="M4210 3289 c0 -38 24 -35 28 4 2 19 -1 27 -12 27 -11 0 -16 -10 -16
-31z"/>
<path d="M3400 3412 c0 -31 64 -66 143 -77 26 -4 64 -18 84 -32 27 -18 34 -20
29 -8 -3 9 -6 18 -6 21 0 10 -65 35 -130 48 -45 10 -82 24 -97 38 -12 12 -23
17 -23 10z"/>
<path d="M3800 3354 c0 -87 4 -133 10 -129 6 4 10 60 10 136 0 79 -4 129 -10
129 -6 0 -10 -52 -10 -136z"/>
<path d="M4371 3471 c85 -118 192 -250 199 -246 13 8 -181 265 -199 265 -11 0
-11 -3 0 -19z"/>
<path d="M4854 3457 c11 -46 106 -238 115 -233 10 7 -99 256 -113 256 -4 0 -6
-10 -2 -23z"/>
<path d="M4826 3423 c-9 -10 -36 -72 -36 -84 0 -5 20 -9 45 -9 25 0 45 2 45 6
0 8 -40 94 -44 94 -1 0 -6 -3 -10 -7z"/>
<path d="M5190 3361 c0 -76 4 -132 10 -136 6 -4 10 42 10 129 0 84 -4 136 -10
136 -6 0 -10 -50 -10 -129z"/>
<path d="M5487 3483 c-9 -8 -7 -139 2 -173 7 -30 38 -76 46 -68 3 3 -1 18 -10
34 -10 20 -15 59 -15 122 0 84 -5 103 -23 85z"/>
<path d="M5716 3483 c-3 -3 -6 -51 -6 -105 0 -55 -5 -108 -10 -119 -8 -13 -7
-19 0 -19 18 0 29 46 36 144 6 86 0 118 -20 99z"/>
<path d="M6013 3493 c-9 -3 -13 -28 -13 -79 0 -70 1 -74 23 -74 42 0 67 27 67
74 0 23 -6 49 -12 58 -14 17 -46 27 -65 21z"/>
<path d="M5916 3473 c-8 -19 -6 -221 1 -240 14 -37 23 12 23 128 0 119 -8 155
-24 112z"/>
<path d="M6105 3420 c0 -33 3 -60 6 -60 4 0 12 14 19 30 10 24 10 36 0 60 -7
17 -15 30 -19 30 -3 0 -6 -27 -6 -60z"/>
<path d="M6045 3293 c29 -50 53 -78 61 -71 7 8 3 17 -24 63 -10 17 -27 32 -36
33 -17 4 -17 3 -1 -25z"/>
<path d="M6302 3361 c4 -173 23 -177 23 -4 0 94 -3 127 -13 131 -10 3 -12 -24
-10 -127z"/>
<path d="M4050 2515 l0 -45 43 0 c46 0 67 13 67 41 0 29 -29 49 -71 49 l-39 0
0 -45z"/>
<path d="M4266 2500 c-9 -22 -16 -43 -16 -45 0 -3 16 -5 35 -5 19 0 35 5 35
10 0 14 -28 80 -33 80 -3 0 -12 -18 -21 -40z"/>
<path d="M5347 2553 c-9 -9 -9 -73 1 -74 11 -2 44 -2 74 -1 36 2 51 48 23 69
-19 13 -87 18 -98 6z"/>
</g>
</svg>
